<svg xmlns="http://www.w3.org/2000/svg" width="25.875" height="48" viewBox="0 0 69 128">
  <defs>
    <style>
      .cls-1 {
        fill: #fff;
        fill-rule: evenodd;
      }
    </style>
  </defs>
  <path id="Color_Fill_1" data-name="Color Fill 1" class="cls-1" d="M10.653,64L67.611,7.489c1.6-1.59,2.141-3.936-.142-6.2a3.7,3.7,0,0,0-5.539-.07C59.171,3.871,3.593,59.1,1.207,61.463A3.767,3.767,0,0,0,.213,64m10.44,0,56.958,56.449c1.6,1.588,2.141,3.931-.142,6.194a3.7,3.7,0,0,1-5.539.07C59.171,124.063,3.593,68.9,1.207,66.534A3.761,3.761,0,0,1,.213,64"/>
</svg>
